<svg width="36" height="36" viewBox="0 0 36 36" fill="none" xmlns="http://www.w3.org/2000/svg">
<path fill-rule="evenodd" clip-rule="evenodd" d="M0 4.60465H4.60465V0H0V4.60465V4.60465ZM7.84884 20.3023H12.4535V15.6977H7.84884V20.3023V20.3023ZM7.84884 28.1512H12.4535V23.5465H7.84884V28.1512V28.1512ZM7.84884 36H12.4535V31.3953H7.84884V36V36ZM0 20.3023H4.60465V15.6977H0V20.3023V20.3023ZM0 28.1512H4.60465V23.5465H0V28.1512V28.1512ZM0 36H4.60465V31.3953H0V36V36ZM0 12.4535H4.60465V7.84884H0V12.4535V12.4535ZM12.4535 12.4535V7.84884H7.84884V12.4535H12.4535ZM15.6977 0V4.60465H20.3023V0H15.6977V0ZM23.5465 4.60465H28.1512V0H23.5465V4.60465ZM31.3953 4.60465H36V0H31.3953V4.60465ZM12.4535 4.60465V0H7.84884V4.60465H12.4535ZM15.6977 12.4535H20.3023V7.84884H15.6977V12.4535V12.4535ZM28.1512 12.4535V7.84884H23.5465V12.4535H28.1512ZM36 12.4535V7.84884H31.3953V12.4535H36ZM15.6977 20.3023H20.3023V15.6977H15.6977V20.3023V20.3023ZM15.6977 28.1512H20.3023V23.5465H15.6977V28.1512V28.1512ZM15.6977 36H20.3023V31.3953H15.6977V36V36ZM23.5465 20.3023H28.1512V15.6977H23.5465V20.3023V20.3023ZM31.3953 20.3023H36V15.6977H31.3953V20.3023V20.3023ZM23.5465 28.1512H28.1512V23.5465H23.5465V28.1512V28.1512ZM23.5465 36H28.1512V31.3953H23.5465V36V36ZM31.3953 28.1512H36V23.5465H31.3953V28.1512V28.1512ZM31.3953 36H36V31.3953H31.3953V36V36Z" fill="#172F3B"/>
</svg>
