<svg width="37" height="37" viewBox="0 0 37 37" fill="none" xmlns="http://www.w3.org/2000/svg">
<path fill-rule="evenodd" clip-rule="evenodd" d="M0.894775 9.40015H9.89478V0.400146H0.894775V9.40015V9.40015ZM14.3948 36.4001H23.3948V27.4001H14.3948V36.4001V36.4001ZM0.894775 36.4001H9.89478V27.4001H0.894775V36.4001V36.4001ZM0.894775 22.9001H9.89478V13.9001H0.894775V22.9001V22.9001ZM14.3948 22.9001H23.3948V13.9001H14.3948V22.9001V22.9001ZM27.8948 0.400146V9.40015H36.8948V0.400146H27.8948V0.400146ZM14.3948 9.40015H23.3948V0.400146H14.3948V9.40015V9.40015ZM27.8948 22.9001H36.8948V13.9001H27.8948V22.9001V22.9001ZM27.8948 36.4001H36.8948V27.4001H27.8948V36.4001V36.4001Z" fill="#172F3B"/>
</svg>
