<svg width="36" height="36" viewBox="0 0 36 36" fill="none" xmlns="http://www.w3.org/2000/svg">
<path fill-rule="evenodd" clip-rule="evenodd" d="M0 5.88848H5.88848V0H0V5.88848V5.88848ZM10.0372 25.9628H15.9257V20.0744H10.0372V25.9628V25.9628ZM10.0372 36H15.9257V30.1115H10.0372V36V36ZM0 25.9628H5.88848V20.0744H0V25.9628V25.9628ZM0 36H5.88848V30.1115H0V36V36ZM0 15.9257H5.88848V10.0372H0V15.9257V15.9257ZM15.9257 15.9257V10.0372H10.0372V15.9257H15.9257ZM20.0744 0V5.88848H25.9628V0H20.0744V0ZM30.1115 5.88848H36V0H30.1115V5.88848ZM15.9257 5.88848V0H10.0372V5.88848H15.9257ZM20.0744 15.9257H25.9628V10.0372H20.0744V15.9257V15.9257ZM36 15.9257V10.0372H30.1115V15.9257H36ZM20.0744 25.9628H25.9628V20.0744H20.0744V25.9628V25.9628ZM20.0744 36H25.9628V30.1115H20.0744V36V36ZM30.1115 25.9628H36V20.0744H30.1115V25.9628V25.9628ZM30.1115 36H36V30.1115H30.1115V36V36Z" fill="#172F3B"/>
</svg>
