<svg width="36" height="37" viewBox="0 0 36 37" fill="none" xmlns="http://www.w3.org/2000/svg">
<path fill-rule="evenodd" clip-rule="evenodd" d="M21.937 25.3189C19.6713 26.9149 16.9081 27.8522 13.9261 27.8522C6.23493 27.8522 0 21.6173 0 13.9261C0 6.23493 6.23493 0 13.9261 0C21.6173 0 27.8522 6.23493 27.8522 13.9261C27.8522 17.0049 26.8531 19.8504 25.1614 22.1559L36.0018 32.9963L32.8081 36.19L21.937 25.3189ZM23.3356 13.9261C23.3356 19.1228 19.1228 23.3356 13.9261 23.3356C8.72936 23.3356 4.51657 19.1228 4.51657 13.9261C4.51657 8.72936 8.72936 4.51657 13.9261 4.51657C19.1228 4.51657 23.3356 8.72936 23.3356 13.9261Z" fill="white"/>
</svg>
