<svg width="25" height="26" viewBox="0 0 25 26" fill="none" xmlns="http://www.w3.org/2000/svg">
<path fill-rule="evenodd" clip-rule="evenodd" d="M13.4058 3.72573C13.8278 3.40698 14.3574 3.0832 14.9917 2.83616C16.1688 2.37764 17.9625 2.5135 19.9376 3.75587C19.9376 3.75587 18.8096 5.11737 17.6308 5.67973C16.5155 6.21178 15.9504 6.26072 15.76 6.27722L15.731 6.27981C16.5271 6.82259 17.2388 7.72723 17.6003 9.21083C17.6003 9.21083 15.8777 9.4264 14.802 9.02689C13.7263 8.62738 12.854 8.08004 12.3625 6.78038C12.3603 6.78742 12.3571 6.80485 12.3522 6.83125L12.3522 6.83129C12.3026 7.09881 12.0823 8.28695 11.0688 8.92738C9.95525 9.63107 8.72583 10.0371 7.50457 9.85011C7.42315 9.83805 7.57996 7.4287 9.69078 6.31298C9.57921 6.34012 8.65537 6.50379 7.36284 6.32203C6.07032 6.14026 4.9354 5.27566 4.1755 4.15994C4.11821 4.07249 6.81705 2.01294 9.80536 3.37894L9.80632 3.37941C9.84083 3.39631 10.7891 3.86081 11.5707 4.42144C11.6169 4.00824 11.72 3.38475 11.9495 2.61703C12.3774 1.18528 13.0928 0.0131043 13.0928 0.0131043L15.0185 0C15.0185 0 14.3365 0.747239 13.8811 2.01939C13.7055 2.50991 13.5413 3.13849 13.4058 3.72573ZM18.3084 6.9616C19.2513 8.72819 19.4199 10.3489 19.4199 10.3489C19.4199 10.3489 18.5626 10.7781 16.6085 10.724C14.9853 10.679 13.6024 10.2901 12.5699 9.48645C11.5462 10.699 10.1054 11.3612 8.39262 11.3612C8.03167 11.3612 7.65263 11.3325 7.27087 11.2728C6.63431 11.176 6.12952 10.6938 6.01584 10.0739C5.93171 9.60646 6.04418 8.67016 6.49922 7.68712C5.60815 7.42629 4.95892 7.22425 4.07841 6.30966C1.74927 8.48954 0 10.6278 0 13.9976C0 20.6252 5.59699 26 12.4997 26C19.403 26 24.9988 20.6255 24.9988 13.9976C24.9988 10.2774 22.9356 7.859 20.1692 5.65591C19.6792 6.14351 19.2513 6.46948 18.3084 6.9616Z" fill="#4E6977"/>
</svg>
